# xmcd
#
# Track frame offsets: 
#        150
#        888
#        11147
#        25482
#        36476
#        47676
#        61007
#        68609
#        71586
#        80967
#        93427
#        99819
#        112269
#        118956
#        130904
#        148482
#        156497
#        166375
#        176270
#        186742
#        191395
#        200664
#        206426
#        212374
#        218167
#        222769
#        224647
#        230637
#
# Disc length: 4424 seconds
#
# Revision: 0
# Processed by: cddbd v1.4PL0 Copyright (c) Steve Scherf et al.
# Submitted via: ExactAudioCopy v0.95a2
#
DISCID=ae11461c
DTITLE=Eros Ramazzotti - Eros Ramazzotti in the Mix Numero Due
DYEAR=2000
DGENRE=Pop-Folk
TTITLE0=Intro
TTITLE1=Cose della Vita
TTITLE2=Un'altra te
TTITLE3=Lei pero
TTITLE4=Favola
TTITLE5=Adesso tu
TTITLE6=Liberta` Liberta`
TTITLE7=Quando L'Amore
TTITLE8=Esodi
TTITLE9=Occhi di speranza
TTITLE10=Un'altra te
TTITLE11=Quasi amore
TTITLE12=L'Aurora
TTITLE13=So lo conte
TTITLE14=Stella Gemella
TTITLE15=Buona Vita
TTITLE16=A mezza Via
TTITLE17=Nostalsong
TTITLE18=Occhi di speranza
TTITLE19=Volare Navigare Camminare
TTITLE20=Lo amero
TTITLE21=Musica e`
TTITLE22=Dove de` musica
TTITLE23=Lettera al futuro
TTITLE24=Piu` bella cosa
TTITLE25=Cuori agitati
TTITLE26=Respiro nel Blu
TTITLE27=Zucchero "Piccolo-Mix"
EXTD=
EXTT0=
EXTT1=
EXTT2=
EXTT3=
EXTT4=
EXTT5=
EXTT6=
EXTT7=
EXTT8=
EXTT9=
EXTT10=
EXTT11=
EXTT12=
EXTT13=
EXTT14=
EXTT15=
EXTT16=
EXTT17=
EXTT18=
EXTT19=
EXTT20=
EXTT21=
EXTT22=
EXTT23=
EXTT24=
EXTT25=
EXTT26=
EXTT27=
PLAYORDER=
